<?xml version="1.0" standalone="yes"?>
<svg xmlns="http://www.w3.org/2000/svg" width="247" height="121">
<path style="fill:#fcfcfc; stroke:none;" d="M0 0L0 121L247 121L247 0L0 0z"/>
<path style="fill:#d69936; stroke:none;" d="M11 10L11 85L12.0278 112.397L26 114L68 114L239 114L239 113L12 113L12 41L11 10z"/>
<path style="fill:#040405; stroke:none;" d="M12 10L12 113L239 113L239 10L12 10z"/>
<path style="fill:#7c5e55; stroke:none;" d="M239 10L239 113L240 113L240 41L239 10z"/>
<path style="fill:#d69936; stroke:none;" d="M15 13L15 14L236 14L215 13L171 13L15 13z"/>
<path style="fill:#7c5e55; stroke:none;" d="M236 13L236 110L237 110L237 43L236 13z"/>
<path style="fill:#fcfcfc; stroke:none;" d="M15 14L15 110L236 110L236 14L15 14z"/>
<path style="fill:#7c5e55; stroke:none;" d="M29 20L29 104L136 104L136 20L135 20L135 103L30 103L30 46L29 20z"/>
<path style="fill:#040405; stroke:none;" d="M30 20L30 103L135 103L135 20L30 20z"/>
<path style="fill:#4fa7df; stroke:none;" d="M47 46L48 47L47 46z"/>
<path style="fill:#fcfcfc; stroke:none;" d="M42 67C43.4092 76.1014 58.8267 80.3695 62.0123 69.9815C65.24 59.4564 50.3837 61.3347 46.8904 55.6096C43.5925 50.2046 52.6032 48.9964 55.7909 50.9938C58.0981 52.4396 59.3721 54.1403 62 55C60.2742 46.4758 45.0573 41.1474 42.4529 52.0185C39.9729 62.3709 53.7776 60.3239 57.2485 66.2238C60.4253 71.6239 51.5361 73.2422 48.2091 71.1574C45.8672 69.6899 44.6705 67.8914 42 67z"/>
<path style="fill:#d69936; stroke:none;" d="M55 46L56 47L55 46z"/>
<path style="fill:#7c5e55; stroke:none;" d="M56 46L57 47L56 46z"/>
<path style="fill:#d69936; stroke:none;" d="M58 47L59 48L58 47z"/>
<path style="fill:#fcfcfc; stroke:none;" d="M72 47L72 75L90 75L90 72L76 72L76 62L88 62L88 59L76 59L76 50L89 50L89 47L72 47z"/>
<path style="fill:#d69936; stroke:none;" d="M89 47L89 50L90 50L89 47z"/>
<path style="fill:#4fa7df; stroke:none;" d="M99 47L99 75L100 75L99 47z"/>
<path style="fill:#fcfcfc; stroke:none;" d="M100 47L100 75L103 75L103 54C108.517 60.4693 113.499 72.5619 122 75L122 47L119 47L119 68L100 47z"/>
<path style="fill:#d69936; stroke:none;" d="M103 47L104 48L103 47z"/>
<path style="fill:#4fa7df; stroke:none;" d="M118 47L118 68L119 68L118 47z"/>
<path style="fill:#7c5e55; stroke:none;" d="M43 48L44 49L43 48z"/>
<path style="fill:#d69936; stroke:none;" d="M59 48L60 49L59 48z"/>
<path style="fill:#7c5e55; stroke:none;" d="M104 48L105 49L104 48z"/>
<path style="fill:#040405; stroke:none;" d="M141 48L141 55L150 55L150 76L157 76C157 66.8411 153.9 55.143 166 55L166 48L141 48z"/>
<path style="fill:#d69936; stroke:none;" d="M170 48L170 76L171 76L170 48z"/>
<path style="fill:#040405; stroke:none;" d="M171 48L171 76L178 76L178 68L194 76L189 66C195.036 62.1758 195.435 53.8674 188.956 49.9383C183.92 46.8841 176.629 48 171 48z"/>
<path style="fill:#7c5e55; stroke:none;" d="M185 48L186 49L185 48z"/>
<path style="fill:#4fa7df; stroke:none;" d="M186 48L187 49L186 48z"/>
<path style="fill:#040405; stroke:none;" d="M197 48C202.102 57.6869 206.999 64.7719 207 76L215 76C215.001 64.8507 219.928 57.6401 225 48C217.018 48.0062 214.261 50.1528 212 58L210 58C207.739 50.1528 204.982 48.0062 197 48z"/>
<path style="fill:#7c5e55; stroke:none;" d="M42 49L43 50L42 49z"/>
<path style="fill:#d69936; stroke:none;" d="M49 49L50 50L49 49z"/>
<path style="fill:#7c5e55; stroke:none;" d="M50 49L50 50L53 50L50 49z"/>
<path style="fill:#4fa7df; stroke:none;" d="M53 49L54 50L53 49z"/>
<path style="fill:#d69936; stroke:none;" d="M60 49L61 50L60 49z"/>
<path style="fill:#4fa7df; stroke:none;" d="M189 49L190 50L189 49z"/>
<path style="fill:#d69936; stroke:none;" d="M197 49L198 50L197 49z"/>
<path style="fill:#4fa7df; stroke:none;" d="M206 49L207 50L206 49z"/>
<path style="fill:#d69936; stroke:none;" d="M215 49L216 50L215 49z"/>
<path style="fill:#4fa7df; stroke:none;" d="M224 49L225 50L224 49M42 50L43 51L42 50z"/>
<path style="fill:#7c5e55; stroke:none;" d="M47 50L48 51L47 50M61 50L62 51L61 50M76 50L76 51L89 51L76 50z"/>
<path style="fill:#d69936; stroke:none;" d="M105 50L106 51L105 50z"/>
<path style="fill:#7c5e55; stroke:none;" d="M190 50L191 51L190 50M198 50L199 51L198 50M223 50L224 51L223 50M46 51L47 52L46 51z"/>
<path style="fill:#4fa7df; stroke:none;" d="M57 51L58 52L57 51z"/>
<path style="fill:#d69936; stroke:none;" d="M61 51L62 52L61 51z"/>
<path style="fill:#7c5e55; stroke:none;" d="M106 51L107 52L106 51M191 51L192 52L191 51z"/>
<path style="fill:#d69936; stroke:none;" d="M198 51L199 52L198 51z"/>
<path style="fill:#4fa7df; stroke:none;" d="M207 51L208 52L207 51z"/>
<path style="fill:#7c5e55; stroke:none;" d="M214 51L215 52L214 51z"/>
<path style="fill:#4fa7df; stroke:none;" d="M223 51L224 52L223 51M41 52L41 56L42 56L41 52z"/>
<path style="fill:#d69936; stroke:none;" d="M45 52L45 55L46 55L45 52z"/>
<path style="fill:#4fa7df; stroke:none;" d="M192 52L193 53L192 52z"/>
<path style="fill:#7c5e55; stroke:none;" d="M199 52L200 53L199 52z"/>
<path style="fill:#4fa7df; stroke:none;" d="M222 52L223 53L222 52M58.3333 53.6667L58.6667 54.3333L58.3333 53.6667z"/>
<path style="fill:#7c5e55; stroke:none;" d="M62 53L63 54L62 53z"/>
<path style="fill:#d69936; stroke:none;" d="M107 53L108 54L107 53M199 53L200 54L199 53z"/>
<path style="fill:#4fa7df; stroke:none;" d="M208 53L209 54L208 53z"/>
<path style="fill:#7c5e55; stroke:none;" d="M213 53L214 54L213 53z"/>
<path style="fill:#d69936; stroke:none;" d="M62 54L63 55L62 54z"/>
<path style="fill:#7c5e55; stroke:none;" d="M103 54L103 75L104 75L103 54z"/>
<path style="fill:#d69936; stroke:none;" d="M108 54L109 55L108 54z"/>
<path style="fill:#7c5e55; stroke:none;" d="M178 54L178 55L184 55L178 54z"/>
<path style="fill:#4fa7df; stroke:none;" d="M193 54L194 55L193 54z"/>
<path style="fill:#7c5e55; stroke:none;" d="M200 54L201 55L200 54z"/>
<path style="fill:#4fa7df; stroke:none;" d="M221 54L222 55L221 54M104 55L105 56L104 55z"/>
<path style="fill:#7c5e55; stroke:none;" d="M109 55L110 56L109 55z"/>
<path style="fill:#d69936; stroke:none;" d="M141 55L142 56L141 55z"/>
<path style="fill:#7c5e55; stroke:none;" d="M142 55L142 56L150 56L142 55M158 55L158 56L166 56L158 55z"/>
<path style="fill:#4fa7df; stroke:none;" d="M178 55L178 62L179 62L178 55z"/>
<path style="fill:#fcfcfc; stroke:none;" d="M179 55L179 61C186.671 60.7481 186.671 55.2519 179 55z"/>
<path style="fill:#7c5e55; stroke:none;" d="M185 55L186 56L185 55z"/>
<path style="fill:#4fa7df; stroke:none;" d="M209 55L210 56L209 55z"/>
<path style="fill:#7c5e55; stroke:none;" d="M212 55L213 56L212 55z"/>
<path style="fill:#d69936; stroke:none;" d="M46 56L47 57L46 56z"/>
<path style="fill:#4fa7df; stroke:none;" d="M105 56L106 57L105 56z"/>
<path style="fill:#d69936; stroke:none;" d="M149 56L149 76L150 76L149 56z"/>
<path style="fill:#4fa7df; stroke:none;" d="M157 56L157 76L158 76L157 56z"/>
<path style="fill:#d69936; stroke:none;" d="M201 56L202 57L201 56M211 56L212 57L211 56z"/>
<path style="fill:#4fa7df; stroke:none;" d="M220 56L221 57L220 56M42 57L43 58L42 57z"/>
<path style="fill:#7c5e55; stroke:none;" d="M48 57L49 58L48 57z"/>
<path style="fill:#d69936; stroke:none;" d="M110 57L111 58L110 57z"/>
<path style="fill:#7c5e55; stroke:none;" d="M202 57L203 58L202 57z"/>
<path style="fill:#4fa7df; stroke:none;" d="M210 57L211 58L210 57z"/>
<path style="fill:#7c5e55; stroke:none;" d="M211 57L212 58L211 57z"/>
<path style="fill:#4fa7df; stroke:none;" d="M43 58L44 59L43 58z"/>
<path style="fill:#d69936; stroke:none;" d="M50 58L51 59L50 58z"/>
<path style="fill:#7c5e55; stroke:none;" d="M51 58L52 59L51 58z"/>
<path style="fill:#4fa7df; stroke:none;" d="M106 58L107 59L106 58z"/>
<path style="fill:#7c5e55; stroke:none;" d="M111 58L112 59L111 58z"/>
<path style="fill:#d69936; stroke:none;" d="M202 58L203 59L202 58z"/>
<path style="fill:#4fa7df; stroke:none;" d="M219 58L220 59L219 58M44 59L45 60L44 59z"/>
<path style="fill:#d69936; stroke:none;" d="M54 59L55 60L54 59z"/>
<path style="fill:#7c5e55; stroke:none;" d="M88 59L89 60L88 59z"/>
<path style="fill:#4fa7df; stroke:none;" d="M107 59L108 60L107 59z"/>
<path style="fill:#7c5e55; stroke:none;" d="M203 59L204 60L203 59z"/>
<path style="fill:#4fa7df; stroke:none;" d="M218 59L219 60L218 59M45 60L46 61L45 60z"/>
<path style="fill:#7c5e55; stroke:none;" d="M57 60L58 61L57 60z"/>
<path style="fill:#d69936; stroke:none;" d="M88 60L76 62L76 63C79.0404 63 88.7401 64.4896 88 60M112 60L113 61L112 60z"/>
<path style="fill:#7c5e55; stroke:none;" d="M185 60L186 61L185 60z"/>
<path style="fill:#d69936; stroke:none;" d="M203 60L204 61L203 60z"/>
<path style="fill:#4fa7df; stroke:none;" d="M47 61L48 62L47 61z"/>
<path style="fill:#7c5e55; stroke:none;" d="M59 61L60 62L59 61M108 61L109 62L108 61z"/>
<path style="fill:#d69936; stroke:none;" d="M113 61L114 62L113 61M179 61L179 62L184 62L179 61z"/>
<path style="fill:#4fa7df; stroke:none;" d="M193 61L194 62L193 61z"/>
<path style="fill:#7c5e55; stroke:none;" d="M204 61L205 62L204 61z"/>
<path style="fill:#4fa7df; stroke:none;" d="M217 61L218 62L217 61M50 62L51 63L50 62z"/>
<path style="fill:#d69936; stroke:none;" d="M60 62L61 63L60 62z"/>
<path style="fill:#7c5e55; stroke:none;" d="M88 62L89 63L88 62z"/>
<path style="fill:#4fa7df; stroke:none;" d="M109 62L110 63L109 62z"/>
<path style="fill:#7c5e55; stroke:none;" d="M114 62L115 63L114 62M53 63L54 64L53 63z"/>
<path style="fill:#4fa7df; stroke:none;" d="M54 63L55 64L54 63z"/>
<path style="fill:#d69936; stroke:none;" d="M61 63L62 64L61 63z"/>
<path style="fill:#4fa7df; stroke:none;" d="M110 63L111 64L110 63M192 63L193 64L192 63z"/>
<path style="fill:#d69936; stroke:none;" d="M205 63L206 64L205 63z"/>
<path style="fill:#4fa7df; stroke:none;" d="M216 63L217 64L216 63M56 64L57 65L56 64z"/>
<path style="fill:#d69936; stroke:none;" d="M115 64L116 65L115 64z"/>
<path style="fill:#7c5e55; stroke:none;" d="M57 65L58 66L57 65z"/>
<path style="fill:#d69936; stroke:none;" d="M62.3333 65.6667L62.6667 66.3333L62.3333 65.6667z"/>
<path style="fill:#4fa7df; stroke:none;" d="M111 65L112 66L111 65z"/>
<path style="fill:#7c5e55; stroke:none;" d="M116 65L117 66L116 65M190 65L191 66L190 65z"/>
<path style="fill:#d69936; stroke:none;" d="M206 65L207 66L206 65z"/>
<path style="fill:#4fa7df; stroke:none;" d="M215 65L216 66L215 65z"/>
<path style="fill:#7c5e55; stroke:none;" d="M41 66L41 67L45 67L41 66z"/>
<path style="fill:#4fa7df; stroke:none;" d="M58 66L59 67L58 66M112 66L113 67L112 66M189 66L190 67L189 66M41 67L41 70L42 70L41 67z"/>
<path style="fill:#7c5e55; stroke:none;" d="M45 67L46 68L45 67z"/>
<path style="fill:#4fa7df; stroke:none;" d="M113 67L114 68L113 67z"/>
<path style="fill:#d69936; stroke:none;" d="M117 67L118 68L117 67M45 68L46 69L45 68z"/>
<path style="fill:#7c5e55; stroke:none;" d="M113 68L114 69L113 68z"/>
<path style="fill:#4fa7df; stroke:none;" d="M178 68L178 76L179 76L178 68M190 68L191 69L190 68M58 69L59 70L58 69z"/>
<path style="fill:#d69936; stroke:none;" d="M62.3333 69.6667L62.6667 70.3333L62.3333 69.6667z"/>
<path style="fill:#4fa7df; stroke:none;" d="M114 69L115 70L114 69z"/>
<path style="fill:#7c5e55; stroke:none;" d="M182 69L183 70L182 69z"/>
<path style="fill:#d69936; stroke:none;" d="M46 70L47 71L46 70z"/>
<path style="fill:#4fa7df; stroke:none;" d="M115 70L116 71L115 70M191 70L192 71L191 70M42 71L43 72L42 71z"/>
<path style="fill:#d69936; stroke:none;" d="M47 71L48 72L47 71z"/>
<path style="fill:#7c5e55; stroke:none;" d="M48 71L49 72L48 71M76 71L76 72L90 72L76 71M183 71L184 72L183 71z"/>
<path style="fill:#4fa7df; stroke:none;" d="M43 72L44 73L43 72z"/>
<path style="fill:#d69936; stroke:none;" d="M50 72L51 73L50 72z"/>
<path style="fill:#7c5e55; stroke:none;" d="M51 72L51 73L54 73L51 72z"/>
<path style="fill:#4fa7df; stroke:none;" d="M54 72L55 73L54 72z"/>
<path style="fill:#d69936; stroke:none;" d="M61 72L62 73L61 72z"/>
<path style="fill:#4fa7df; stroke:none;" d="M116 72L117 73L116 72M192 72L193 73L192 72M44 73L45 74L44 73z"/>
<path style="fill:#d69936; stroke:none;" d="M60 73L61 74L60 73z"/>
<path style="fill:#4fa7df; stroke:none;" d="M117 73L118 74L117 73z"/>
<path style="fill:#7c5e55; stroke:none;" d="M184 73L185 74L184 73z"/>
<path style="fill:#4fa7df; stroke:none;" d="M193 73L194 74L193 73M45 74L46 75L45 74z"/>
<path style="fill:#7c5e55; stroke:none;" d="M59 74L60 75L59 74z"/>
<path style="fill:#4fa7df; stroke:none;" d="M118 74L119 75L118 74z"/>
<path style="fill:#7c5e55; stroke:none;" d="M47 75L48 76L47 75z"/>
<path style="fill:#4fa7df; stroke:none;" d="M48 75L49 76L48 75z"/>
<path style="fill:#d69936; stroke:none;" d="M56 75L57 76L56 75z"/>
<path style="fill:#7c5e55; stroke:none;" d="M57 75L58 76L57 75M185 75L186 76L185 75z"/>
<path style="fill:#4fa7df; stroke:none;" d="M194 75L195 76L194 75z"/>
</svg>
